<svg width="24" height="24" version="1.1" viewBox="0 0 24 24" xmlns="http://www.w3.org/2000/svg">
 <defs>
  <style id="current-color-scheme" type="text/css">.ColorScheme-Text {
        color:#363636;
      }</style>
 </defs>
 <path class="ColorScheme-Text" d="m12 1c-6.0751 0-11 4.9249-11 11 0 6.0751 4.9249 11 11 11 6.0751 0 11-4.9249 11-11 0-6.0751-4.9249-11-11-11zm0 0.91667c5.5688 0 10.083 4.5145 10.083 10.083 0 5.5688-4.5145 10.083-10.083 10.083-5.5688 0-10.083-4.5145-10.083-10.083 0-5.5688 4.5145-10.083 10.083-10.083zm-0.0358 1.8333c-2.0313 0-3.6667 1.6353-3.6667 3.6667v3.6667h-1.0026c-0.94792 0-1.7116 0.81767-1.7116 1.8333v3.6667c0 1.0157 0.76363 1.8333 1.7116 1.8333h9.4105c0.94792 0 1.7116-0.81767 1.7116-1.8333v-3.6667c0-1.0157-0.76363-1.8333-1.7116-1.8333h-1.0742v-3.6667c0-2.0313-1.6353-3.6667-3.6667-3.6667zm0 0.91667c1.5235 0 2.75 1.4309 2.75 3.2083v3.2083h-5.5v-3.2083c0-1.7774 1.2265-3.2083 2.75-3.2083zm-4.5475 7.3333h9.1667c0.50783 0 0.91667 0.40883 0.91667 0.91667v3.6667c0 0.50783-0.40883 0.91667-0.91667 0.91667h-9.1667c-0.50783 0-0.91667-0.40883-0.91667-0.91667v-3.6667c0-0.50783 0.40883-0.91667 0.91667-0.91667z" fill="#fff" stroke-width=".91667"/>
</svg>
