<svg width="24" height="24" version="1.1" viewBox="0 0 24 24" xmlns="http://www.w3.org/2000/svg">
 <defs>
  <style id="current-color-scheme" type="text/css">.ColorScheme-Text {
                color:#dedede;
            }</style>
 </defs>
 <path class="ColorScheme-Text" d="m1 12a11 11 0 0 1 1.5326-5.577l4.9307 4.9289-0.65169 0.64811-4.0373-4.0373a10.083 10.083 0 0 0-0.85759 4.0373 10.083 10.083 0 0 0 10.083 10.083 10.083 10.083 0 0 0 4.9056-1.2873l0.66781 0.67138a11 11 0 0 1-5.5734 1.5326 11 11 0 0 1-11-11zm5.423-9.4673a11 11 0 0 1 5.577-1.5326 11 11 0 0 1 11 11 11 11 0 0 1-1.5326 5.577l-4.9307-4.9289 0.64811-0.64811 4.0373 4.039a10.083 10.083 0 0 0 0.86116-4.039 10.083 10.083 0 0 0-10.083-10.083 10.083 10.083 0 0 0-4.9056 1.2873z" fill="#fff" stroke-width=".91667"/>
</svg>
