<svg width="24" height="24" version="1.1" viewBox="0 0 24 24" xmlns="http://www.w3.org/2000/svg">
 <style id="current-color-scheme" type="text/css">.ColorScheme-Text {
            color:#dedede;
        }</style>
 <g class="ColorScheme-Text" transform="matrix(.9893 0 0 .9893 -2.9572 -4.7003)" fill="#fff">
  <path d="m9.762 5.762a12 12 0 0 0-4e-3 8e-3 12 12 0 0 0-5.758 10.23 12 12 0 0 0 12 12 12 12 0 0 0 10.238-5.762l-0.732-0.732a11 11 0 0 1-5.506 1.494 11 11 0 0 1-11-11 11 11 0 0 1 1.486-5.502 11 11 0 0 1 8e-3 -4e-3zm-0.962 1.94a12 12 0 0 0-0.8 4.298 12 12 0 0 0 12 12 12 12 0 0 0 4.326-0.82 11 11 0 0 1-8.326 3.82 11 11 0 0 1-11-11 11 11 0 0 1 3.8-8.299zm13.2-1.702v1h2.293l-2.293 2.293v0.707h4v-1h-2.293l2.293-2.293v-0.707h-0.707z"/>
  <path d="m20 13v1h2.293l-2.293 2.293v0.707h4v-1h-2.293l2.293-2.293v-0.707h-0.707zm-6-5v1h2.293l-2.293 2.293v0.707h4v-1h-2.293l2.293-2.293v-0.707h-0.707z"/>
 </g>
</svg>
