<?xml version="1.0" encoding="UTF-8"?>
<svg version="1.1" viewBox="0 0 24 24" xmlns="http://www.w3.org/2000/svg" xmlns:cc="http://creativecommons.org/ns#" xmlns:dc="http://purl.org/dc/elements/1.1/" xmlns:rdf="http://www.w3.org/1999/02/22-rdf-syntax-ns#">
 <metadata>
  <rdf:RDF>
   <cc:Work rdf:about="">
    <dc:format>image/svg+xml</dc:format>
    <dc:type rdf:resource="http://purl.org/dc/dcmitype/StillImage"/>
    <dc:title/>
   </cc:Work>
  </rdf:RDF>
 </metadata>
 <defs>
  <style id="current-color-scheme" type="text/css">.ColorScheme-Text {
        color:#363636;
      }</style>
 </defs>
 <path class="ColorScheme-Text" d="m18.564 3.7559-3.2656 5.8184-2.416-1.4355-1.0215 1.7188 5.6504 3.3594 1.0215-1.7207-2.375-1.4121 3.2773-5.8398zm-7.5645 7.2441c-1.1185 1.5643-3.1645 2.8109-7 3v1c2.1137 3.3717 5 5 9 5h1c1.3112-1.5872 2.3575-3.0324 3-5v-1l-5-3zm0.5293 1.1016 4.3281 2.5977c-0.57283 1.5466-1.472 2.9036-2.584 4.2695-3.2734 0.03125-6.2207-1.4282-7.9473-4.1387 3.1182-0.31062 5.0195-1.2848 6.2031-2.7285z" fill="currentColor"/>
</svg>
