<svg width="30" height="30" version="1.1" viewBox="0 0 7.9375 7.9375" xmlns="http://www.w3.org/2000/svg">
 <g transform="translate(0 -289.06)">
  <rect x=".86407" y="289.92" width="6.2094" height="6.2267" ry="6.589e-6" opacity="0" stroke-width=".18433" style="paint-order:markers stroke fill"/>
  <g transform="matrix(.0065117 0 0 .0065117 2.3018 291.36)" fill="#fff">
   <g fill="#fff">
    <path d="m284.29 256 221.86-221.86c7.811-7.811 7.811-20.475 0-28.285s-20.475-7.811-28.285 0l-221.86 221.86-221.86-221.86c-7.811-7.811-20.475-7.811-28.285 0s-7.811 20.475 0 28.285l221.86 221.86-221.86 221.86c-7.811 7.811-7.811 20.475 0 28.285 3.905 3.905 9.024 5.857 14.143 5.857s10.237-1.952 14.143-5.857l221.86-221.86 221.86 221.86c3.905 3.905 9.024 5.857 14.143 5.857s10.237-1.952 14.143-5.857c7.811-7.811 7.811-20.475 0-28.285z" fill="#fff"/>
   </g>
  </g>
 </g>
</svg>
